<svg width="21" height="27" viewBox="0 0 21 27" fill="none" xmlns="http://www.w3.org/2000/svg">
<path d="M11.9766 14.3027V17.8887L11.8828 19.7168L12.7852 18.7793L13.6758 17.8535C13.7695 17.7598 13.875 17.6855 13.9922 17.6309C14.1172 17.5684 14.2461 17.5371 14.3789 17.5371C14.6367 17.5371 14.8516 17.623 15.0234 17.7949C15.2031 17.9668 15.293 18.1816 15.293 18.4395C15.293 18.5879 15.2656 18.7168 15.2109 18.8262C15.1562 18.9355 15.0742 19.041 14.9648 19.1426L11.7305 22.1074C11.5977 22.2324 11.4688 22.3223 11.3438 22.377C11.2266 22.4316 11.0977 22.459 10.957 22.459C10.8086 22.459 10.6758 22.4316 10.5586 22.377C10.4414 22.3223 10.3125 22.2324 10.1719 22.1074L6.9375 19.1426C6.82812 19.041 6.74609 18.9355 6.69141 18.8262C6.63672 18.7168 6.60938 18.5879 6.60938 18.4395C6.60938 18.1816 6.69531 17.9668 6.86719 17.7949C7.04688 17.623 7.26953 17.5371 7.53516 17.5371C7.65234 17.5371 7.77344 17.5684 7.89844 17.6309C8.02344 17.6855 8.13281 17.7598 8.22656 17.8535L9.11719 18.7793L10.0195 19.7168L9.9375 17.8887V14.3027C9.9375 14.0293 10.0352 13.7988 10.2305 13.6113C10.4336 13.416 10.6758 13.3184 10.957 13.3184C11.2305 13.3184 11.4688 13.416 11.6719 13.6113C11.875 13.7988 11.9766 14.0293 11.9766 14.3027ZM4.71094 26.1855C3.45312 26.1855 2.50391 25.8613 1.86328 25.2129C1.22266 24.5645 0.902344 23.6074 0.902344 22.3418V4.6582C0.902344 3.40039 1.22266 2.44727 1.86328 1.79883C2.50391 1.14258 3.45312 0.814453 4.71094 0.814453H10.3594C10.8516 0.814453 11.2812 0.849609 11.6484 0.919922C12.0156 0.982422 12.3555 1.10352 12.668 1.2832C12.9805 1.45508 13.3008 1.70898 13.6289 2.04492L19.7695 8.29102C20.1133 8.63477 20.3711 8.9668 20.543 9.28711C20.7227 9.59961 20.8438 9.94727 20.9062 10.3301C20.9688 10.7051 21 11.166 21 11.7129V22.3418C21 23.5996 20.6797 24.5527 20.0391 25.2012C19.3984 25.8574 18.4492 26.1855 17.1914 26.1855H4.71094ZM4.89844 23.877H17.0039C17.5742 23.877 18 23.7324 18.2812 23.4434C18.5625 23.1543 18.7031 22.7402 18.7031 22.2012V12.0293H12.3867C11.5508 12.0293 10.9258 11.8223 10.5117 11.4082C10.1055 10.9941 9.90234 10.3691 9.90234 9.5332V3.11133H4.91016C4.33984 3.11133 3.91406 3.25977 3.63281 3.55664C3.35156 3.85352 3.21094 4.27148 3.21094 4.81055V22.2012C3.21094 22.7402 3.35156 23.1543 3.63281 23.4434C3.91406 23.7324 4.33594 23.877 4.89844 23.877ZM12.6094 10.002H18.3867L11.9297 3.42773V9.31055C11.9297 9.55273 11.9805 9.72852 12.082 9.83789C12.1914 9.94727 12.3672 10.002 12.6094 10.002Z" fill="white" style="fill:white;fill-opacity:1;"/>
</svg>
