<svg width="122" height="122" viewBox="0 0 122 122" fill="none" xmlns="http://www.w3.org/2000/svg">
<rect x="3.44238" y="3.20605" width="115.588" height="115.588" rx="30.9966" stroke="white" style="stroke:white;stroke-opacity:1;" stroke-width="5"/>
<path d="M60.1385 21.1822C60.363 19.9632 62.1101 19.9632 62.3346 21.1822L67.0736 46.9081L88.6155 32.0681C89.6363 31.3649 90.8716 32.6003 90.1684 33.621L75.3284 55.1629L101.054 59.9019C102.273 60.1264 102.273 61.8735 101.054 62.098L75.3284 66.837L90.1684 88.3789C90.8716 89.3997 89.6363 90.635 88.6155 89.9318L70.6434 77.551L73.226 63.5311C74.0048 59.3033 72.5122 55.2613 69.6947 52.5418C66.9752 49.7244 62.9332 48.2318 58.7054 49.0106L44.6855 51.5932L32.3047 33.6211C31.6015 32.6003 32.8369 31.3649 33.8576 32.0681L55.3995 46.9081L60.1385 21.1822Z" fill="white" style="fill:white;fill-opacity:1;"/>
<path d="M33.8573 89.9317C32.8365 90.6349 31.6012 89.3996 32.3044 88.3788L54.2266 56.5562C57.1457 52.3188 63.1927 51.7665 66.8311 55.405C70.4696 59.0434 69.9173 65.0904 65.6799 68.0095L33.8573 89.9317Z" fill="#00A3FF" style="fill:#00A3FF;fill:color(display-p3 0.0000 0.6400 1.0000);fill-opacity:1;"/>
<path d="M21.4185 62.098C20.1995 61.8734 20.1995 60.1264 21.4185 59.9018L59.4218 52.9012C64.4822 51.969 69.1486 55.8543 69.1486 60.9999C69.1486 66.1454 64.4822 70.0307 59.4218 69.0986L21.4185 62.098Z" fill="#00A3FF" style="fill:#00A3FF;fill:color(display-p3 0.0000 0.6400 1.0000);fill-opacity:1;"/>
<path d="M62.3343 100.818C62.1098 102.037 60.3627 102.037 60.1382 100.818L53.1375 62.8143C52.2054 57.7539 56.0907 53.0875 61.2362 53.0875C66.3818 53.0875 70.2671 57.7539 69.3349 62.8143L62.3343 100.818Z" fill="#00A3FF" style="fill:#00A3FF;fill:color(display-p3 0.0000 0.6400 1.0000);fill-opacity:1;"/>
</svg>
