<svg width="139" height="48" viewBox="0 0 139 48" fill="none" xmlns="http://www.w3.org/2000/svg">
<rect x="1" y="1" width="46" height="46" rx="12.3333" stroke="white" style="stroke:white;stroke-opacity:1;" stroke-width="2"/>
<path d="M23.563 8.15048C23.6523 7.66525 24.3478 7.66525 24.4371 8.15048L26.3235 18.3907L34.8982 12.4836C35.3045 12.2037 35.7963 12.6954 35.5164 13.1017L29.6093 21.6765L39.8495 23.5628C40.3347 23.6522 40.3347 24.3476 39.8495 24.437L29.6093 26.3234L35.5164 34.8981C35.7963 35.3044 35.3046 35.7962 34.8982 35.5163L27.7444 30.5881L28.7724 25.0075C29.0824 23.3246 28.4883 21.7156 27.3668 20.6332C26.2843 19.5117 24.6754 18.9175 22.9925 19.2276L17.4119 20.2556L12.4837 13.1018C12.2038 12.6954 12.6955 12.2037 13.1019 12.4836L21.6766 18.3907L23.563 8.15048Z" fill="white" style="fill:white;fill-opacity:1;"/>
<path d="M13.1018 35.5163C12.6955 35.7962 12.2038 35.3045 12.4837 34.8981L21.2098 22.2312C22.3718 20.5445 24.7788 20.3246 26.227 21.7729C27.6753 23.2212 27.4555 25.6282 25.7688 26.7901L13.1018 35.5163Z" fill="#00A3FF" style="fill:#00A3FF;fill:color(display-p3 0.0000 0.6400 1.0000);fill-opacity:1;"/>
<path d="M8.15055 24.437C7.66531 24.3477 7.66531 23.6523 8.15055 23.5629L23.2778 20.7763C25.2921 20.4052 27.1495 21.9518 27.1495 24C27.1495 26.0481 25.2921 27.5947 23.2778 27.2236L8.15055 24.437Z" fill="#00A3FF" style="fill:#00A3FF;fill:color(display-p3 0.0000 0.6400 1.0000);fill-opacity:1;"/>
<path d="M24.4371 39.8494C24.3477 40.3346 23.6523 40.3346 23.5629 39.8494L20.7763 24.7222C20.4053 22.7079 21.9518 20.8504 24 20.8504C26.0482 20.8504 27.5947 22.7079 27.2237 24.7222L24.4371 39.8494Z" fill="#00A3FF" style="fill:#00A3FF;fill:color(display-p3 0.0000 0.6400 1.0000);fill-opacity:1;"/>
<path d="M62.4464 28.3001C62.5264 29.1001 62.8304 29.6601 63.3584 29.9801C63.8864 30.3001 64.5184 30.4601 65.2544 30.4601C65.5104 30.4601 65.7984 30.4441 66.1184 30.4121C66.4544 30.3641 66.7664 30.2841 67.0544 30.1721C67.3424 30.0601 67.5744 29.9001 67.7504 29.6921C67.9424 29.4681 68.0304 29.1801 68.0144 28.8281C67.9984 28.4761 67.8704 28.1881 67.6304 27.9641C67.3904 27.7401 67.0784 27.5641 66.6944 27.4361C66.3264 27.2921 65.9024 27.1721 65.4224 27.0761C64.9424 26.9801 64.4544 26.8761 63.9584 26.7641C63.4464 26.6521 62.9504 26.5161 62.4704 26.3561C62.0064 26.1961 61.5824 25.9801 61.1984 25.7081C60.8304 25.4361 60.5344 25.0921 60.3104 24.6761C60.0864 24.2441 59.9744 23.7161 59.9744 23.0921C59.9744 22.4201 60.1344 21.8601 60.4544 21.4121C60.7904 20.9481 61.2064 20.5801 61.7024 20.3081C62.2144 20.0201 62.7744 19.8201 63.3824 19.7081C64.0064 19.5961 64.5984 19.5401 65.1584 19.5401C65.7984 19.5401 66.4064 19.6121 66.9824 19.7561C67.5744 19.8841 68.1024 20.1001 68.5664 20.4041C69.0464 20.7081 69.4384 21.1081 69.7424 21.6041C70.0624 22.0841 70.2624 22.6681 70.3424 23.3561H67.4864C67.3584 22.7001 67.0544 22.2601 66.5744 22.0361C66.1104 21.8121 65.5744 21.7001 64.9664 21.7001C64.7744 21.7001 64.5424 21.7161 64.2704 21.7481C64.0144 21.7801 63.7664 21.8441 63.5264 21.9401C63.3024 22.0201 63.1104 22.1481 62.9504 22.3241C62.7904 22.4841 62.7104 22.7001 62.7104 22.9721C62.7104 23.3081 62.8224 23.5801 63.0464 23.7881C63.2864 23.9961 63.5904 24.1721 63.9584 24.3161C64.3424 24.4441 64.7744 24.5561 65.2544 24.6521C65.7344 24.7481 66.2304 24.8521 66.7424 24.9641C67.2384 25.0761 67.7264 25.2121 68.2064 25.3721C68.6864 25.5321 69.1104 25.7481 69.4784 26.0201C69.8624 26.2921 70.1664 26.6361 70.3904 27.0521C70.6304 27.4681 70.7504 27.9801 70.7504 28.5881C70.7504 29.3241 70.5824 29.9481 70.2464 30.4601C69.9104 30.9721 69.4704 31.3881 68.9264 31.7081C68.3984 32.0281 67.8064 32.2601 67.1504 32.4041C66.4944 32.5481 65.8464 32.6201 65.2064 32.6201C64.4224 32.6201 63.6944 32.5321 63.0224 32.3561C62.3664 32.1801 61.7904 31.9161 61.2944 31.5641C60.8144 31.1961 60.4304 30.7481 60.1424 30.2201C59.8704 29.6761 59.7264 29.0361 59.7104 28.3001H62.4464ZM72.8997 19.8761H75.4917V21.5561H75.5397C75.9237 20.8361 76.4597 20.3241 77.1477 20.0201C77.8357 19.7001 78.5797 19.5401 79.3797 19.5401C80.3557 19.5401 81.2037 19.7161 81.9237 20.0681C82.6597 20.4041 83.2677 20.8761 83.7477 21.4841C84.2277 22.0761 84.5877 22.7721 84.8277 23.5721C85.0677 24.3721 85.1877 25.2281 85.1877 26.1401C85.1877 26.9721 85.0757 27.7801 84.8517 28.5641C84.6437 29.3481 84.3157 30.0441 83.8677 30.6521C83.4357 31.2441 82.8837 31.7241 82.2117 32.0921C81.5397 32.4441 80.7477 32.6201 79.8357 32.6201C79.4357 32.6201 79.0357 32.5801 78.6357 32.5001C78.2357 32.4361 77.8517 32.3241 77.4837 32.1641C77.1157 32.0041 76.7717 31.8041 76.4517 31.5641C76.1477 31.3081 75.8917 31.0121 75.6837 30.6761H75.6357V36.8681H72.8997V19.8761ZM82.4517 26.0921C82.4517 25.5321 82.3797 24.9881 82.2357 24.4601C82.0917 23.9321 81.8757 23.4681 81.5877 23.0681C81.2997 22.6521 80.9397 22.3241 80.5077 22.0841C80.0757 21.8281 79.5797 21.7001 79.0197 21.7001C77.8677 21.7001 76.9957 22.1001 76.4037 22.9001C75.8277 23.7001 75.5397 24.7641 75.5397 26.0921C75.5397 26.7161 75.6117 27.3001 75.7557 27.8441C75.9157 28.3721 76.1477 28.8281 76.4517 29.2121C76.7557 29.5961 77.1157 29.9001 77.5317 30.1241C77.9637 30.3481 78.4597 30.4601 79.0197 30.4601C79.6437 30.4601 80.1717 30.3321 80.6037 30.0761C81.0357 29.8201 81.3877 29.4921 81.6597 29.0921C81.9477 28.6761 82.1477 28.2121 82.2597 27.7001C82.3877 27.1721 82.4517 26.6361 82.4517 26.0921ZM97.8916 29.5241C97.8916 29.8601 97.9316 30.1001 98.0116 30.2441C98.1076 30.3881 98.2836 30.4601 98.5396 30.4601C98.6196 30.4601 98.7156 30.4601 98.8276 30.4601C98.9396 30.4601 99.0676 30.4441 99.2116 30.4121V32.3081C99.1156 32.3401 98.9876 32.3721 98.8276 32.4041C98.6836 32.4521 98.5316 32.4921 98.3716 32.5241C98.2116 32.5561 98.0516 32.5801 97.8916 32.5961C97.7316 32.6121 97.5956 32.6201 97.4836 32.6201C96.9236 32.6201 96.4596 32.5081 96.0916 32.2841C95.7236 32.0601 95.4836 31.6681 95.3716 31.1081C94.8276 31.6361 94.1556 32.0201 93.3556 32.2601C92.5716 32.5001 91.8116 32.6201 91.0756 32.6201C90.5156 32.6201 89.9796 32.5401 89.4676 32.3801C88.9556 32.2361 88.4996 32.0201 88.0996 31.7321C87.7156 31.4281 87.4036 31.0521 87.1636 30.6041C86.9396 30.1401 86.8276 29.6041 86.8276 28.9961C86.8276 28.2281 86.9636 27.6041 87.2356 27.1241C87.5236 26.6441 87.8916 26.2681 88.3396 25.9961C88.8036 25.7241 89.3156 25.5321 89.8756 25.4201C90.4516 25.2921 91.0276 25.1961 91.6036 25.1321C92.0996 25.0361 92.5716 24.9721 93.0196 24.9401C93.4676 24.8921 93.8596 24.8201 94.1956 24.7241C94.5476 24.6281 94.8196 24.4841 95.0116 24.2921C95.2196 24.0841 95.3236 23.7801 95.3236 23.3801C95.3236 23.0281 95.2356 22.7401 95.0596 22.5161C94.8996 22.2921 94.6916 22.1241 94.4356 22.0121C94.1956 21.8841 93.9236 21.8041 93.6196 21.7721C93.3156 21.7241 93.0276 21.7001 92.7556 21.7001C91.9876 21.7001 91.3556 21.8601 90.8596 22.1801C90.3636 22.5001 90.0836 22.9961 90.0196 23.6681H87.2836C87.3316 22.8681 87.5236 22.2041 87.8596 21.6761C88.1956 21.1481 88.6196 20.7241 89.1316 20.4041C89.6596 20.0841 90.2516 19.8601 90.9076 19.7321C91.5636 19.6041 92.2356 19.5401 92.9236 19.5401C93.5316 19.5401 94.1316 19.6041 94.7236 19.7321C95.3156 19.8601 95.8436 20.0681 96.3076 20.3561C96.7876 20.6441 97.1716 21.0201 97.4596 21.4841C97.7476 21.9321 97.8916 22.4841 97.8916 23.1401V29.5241ZM95.1556 26.0681C94.7396 26.3401 94.2276 26.5081 93.6196 26.5721C93.0116 26.6201 92.4036 26.7001 91.7956 26.8121C91.5076 26.8601 91.2276 26.9321 90.9556 27.0281C90.6836 27.1081 90.4436 27.2281 90.2356 27.3881C90.0276 27.5321 89.8596 27.7321 89.7316 27.9881C89.6196 28.2281 89.5636 28.5241 89.5636 28.8761C89.5636 29.1801 89.6516 29.4361 89.8276 29.6441C90.0036 29.8521 90.2116 30.0201 90.4516 30.1481C90.7076 30.2601 90.9796 30.3401 91.2676 30.3881C91.5716 30.4361 91.8436 30.4601 92.0836 30.4601C92.3876 30.4601 92.7156 30.4201 93.0676 30.3401C93.4196 30.2601 93.7476 30.1241 94.0516 29.9321C94.3716 29.7401 94.6356 29.5001 94.8436 29.2121C95.0516 28.9081 95.1556 28.5401 95.1556 28.1081V26.0681ZM100.836 19.8761H103.404V22.2761H103.452C103.532 21.9401 103.684 21.6121 103.908 21.2921C104.148 20.9721 104.428 20.6841 104.748 20.4281C105.084 20.1561 105.452 19.9401 105.852 19.7801C106.252 19.6201 106.66 19.5401 107.076 19.5401C107.396 19.5401 107.612 19.5481 107.724 19.5641C107.852 19.5801 107.98 19.5961 108.108 19.6121V22.2521C107.916 22.2201 107.716 22.1961 107.508 22.1801C107.316 22.1481 107.124 22.1321 106.932 22.1321C106.468 22.1321 106.028 22.2281 105.612 22.4201C105.212 22.5961 104.86 22.8681 104.556 23.2361C104.252 23.5881 104.012 24.0281 103.836 24.5561C103.66 25.0841 103.572 25.6921 103.572 26.3801V32.2841H100.836V19.8761ZM109.345 15.1481H112.081V24.8921L117.025 19.8761H120.385L115.633 24.4361L120.841 32.2841H117.505L113.713 26.2601L112.081 27.8441V32.2841H109.345V15.1481ZM121.9 24.4601H128.884V27.0521H121.9V24.4601ZM130.244 19.8761H132.308V16.1561H135.044V19.8761H137.516V21.9161H135.044V28.5401C135.044 28.8281 135.052 29.0761 135.068 29.2841C135.1 29.4921 135.156 29.6681 135.236 29.8121C135.332 29.9561 135.468 30.0681 135.644 30.1481C135.82 30.2121 136.06 30.2441 136.364 30.2441C136.556 30.2441 136.748 30.2441 136.94 30.2441C137.132 30.2281 137.324 30.1961 137.516 30.1481V32.2601C137.212 32.2921 136.916 32.3241 136.628 32.3561C136.34 32.3881 136.044 32.4041 135.74 32.4041C135.02 32.4041 134.436 32.3401 133.988 32.2121C133.556 32.0681 133.212 31.8681 132.956 31.6121C132.716 31.3401 132.548 31.0041 132.452 30.6041C132.372 30.2041 132.324 29.7481 132.308 29.2361V21.9161H130.244V19.8761Z" fill="white" style="fill:white;fill-opacity:1;"/>
</svg>
