<svg width="148" height="148" viewBox="0 0 148 148" fill="none" xmlns="http://www.w3.org/2000/svg">
<rect x="0.685185" y="0.685124" width="146.63" height="146.63" rx="40.4259" stroke="white" style="stroke:white;stroke-opacity:1;" stroke-width="1.37037"/>
<path d="M72.6525 25.1309C72.9281 23.6348 75.0723 23.6348 75.3479 25.1309L81.1641 56.7048L107.603 38.4914C108.856 37.6284 110.372 39.1445 109.509 40.3973L91.2954 66.8361L122.869 72.6524C124.365 72.928 124.365 75.0721 122.869 75.3478L91.2954 81.164L109.509 107.603C110.372 108.856 108.856 110.372 107.603 109.509L85.5453 94.3135L88.715 77.1066C89.6709 71.9177 87.839 66.9568 84.381 63.6192C81.0434 60.1613 76.0825 58.3294 70.8936 59.2852L53.6867 62.4549L38.4915 40.3973C37.6285 39.1445 39.1446 37.6284 40.3974 38.4914L66.8362 56.7048L72.6525 25.1309Z" fill="white" style="fill:white;fill-opacity:1;"/>
<path d="M40.3972 109.509C39.1444 110.372 37.6282 108.856 38.4912 107.603L65.3968 68.5462C68.9795 63.3455 76.4011 62.6677 80.8666 67.1332C85.3322 71.5988 84.6543 79.0204 79.4537 82.603L40.3972 109.509Z" fill="#00A3FF" style="fill:#00A3FF;fill:color(display-p3 0.0000 0.6400 1.0000);fill-opacity:1;"/>
<path d="M25.1308 75.3477C23.6346 75.0721 23.6346 72.9279 25.1308 72.6523L71.773 64.0603C77.9838 62.9162 83.7109 67.6847 83.7109 74C83.7109 80.3152 77.9838 85.0837 71.773 83.9397L25.1308 75.3477Z" fill="#00A3FF" style="fill:#00A3FF;fill:color(display-p3 0.0000 0.6400 1.0000);fill-opacity:1;"/>
<path d="M75.3476 122.869C75.072 124.365 72.9278 124.365 72.6522 122.869L64.0602 76.2269C62.9161 70.0161 67.6846 64.289 73.9999 64.289C80.3152 64.289 85.0837 70.0161 83.9396 76.2269L75.3476 122.869Z" fill="#00A3FF" style="fill:#00A3FF;fill:color(display-p3 0.0000 0.6400 1.0000);fill-opacity:1;"/>
</svg>
