<svg width="61" height="24" viewBox="0 0 61 24" fill="none" xmlns="http://www.w3.org/2000/svg">
<g filter="url(#filter0_i_232_6397)">
<g clip-path="url(#clip0_232_6397)">
<circle cx="3" cy="16" r="1" fill="white" style="fill:white;fill-opacity:1;"/>
<circle opacity="0.5" cx="50.5" cy="9.5" r="0.5" fill="white" style="fill:white;fill-opacity:1;"/>
<circle opacity="0.75" cx="42.5" cy="0.5" r="1.5" fill="white" style="fill:white;fill-opacity:1;"/>
<circle opacity="0.75" cx="1" cy="21" r="1" fill="white" style="fill:white;fill-opacity:1;"/>
<circle opacity="0.5" cx="28.5" cy="12.5" r="0.5" fill="white" style="fill:white;fill-opacity:1;"/>
<circle opacity="0.5" cx="3.5" cy="0.5" r="1.5" fill="white" style="fill:white;fill-opacity:1;"/>
<circle opacity="0.5" cx="6.5" cy="8.5" r="0.5" fill="white" style="fill:white;fill-opacity:1;"/>
<circle opacity="0.5" cx="29.5" cy="13.5" r="0.5" fill="white" style="fill:white;fill-opacity:1;"/>
<circle cx="42.5" cy="0.5" r="1.5" fill="white" style="fill:white;fill-opacity:1;"/>
<circle cx="35.5" cy="6.5" r="0.5" fill="white" style="fill:white;fill-opacity:1;"/>
<circle cx="53.5" cy="0.5" r="1.5" fill="white" style="fill:white;fill-opacity:1;"/>
<circle opacity="0.5" cx="17.5" cy="16.5" r="1.5" fill="white" style="fill:white;fill-opacity:1;"/>
<circle opacity="0.5" cx="56.5" cy="11.5" r="0.5" fill="white" style="fill:white;fill-opacity:1;"/>
<circle opacity="0.75" cx="44" cy="11" r="1" fill="white" style="fill:white;fill-opacity:1;"/>
<circle cx="32" cy="16" r="1" fill="white" style="fill:white;fill-opacity:1;"/>
<circle cx="27.5" cy="13.5" r="0.5" fill="white" style="fill:white;fill-opacity:1;"/>
<circle cx="60.5" cy="7.5" r="0.5" fill="white" style="fill:white;fill-opacity:1;"/>
<circle opacity="0.5" cx="43.5" cy="23.5" r="0.5" fill="white" style="fill:white;fill-opacity:1;"/>
<circle cx="53.5" cy="17.5" r="1.5" fill="white" style="fill:white;fill-opacity:1;"/>
<circle opacity="0.5" cx="0.5" cy="10.5" r="0.5" fill="white" style="fill:white;fill-opacity:1;"/>
<circle opacity="0.5" cx="23.5" cy="15.5" r="1.5" fill="white" style="fill:white;fill-opacity:1;"/>
<circle opacity="0.75" cx="56" cy="13" r="1" fill="white" style="fill:white;fill-opacity:1;"/>
<circle opacity="0.5" cx="34.5" cy="20.5" r="0.5" fill="white" style="fill:white;fill-opacity:1;"/>
<circle opacity="0.75" cx="45.5" cy="9.5" r="0.5" fill="white" style="fill:white;fill-opacity:1;"/>
<circle opacity="0.5" cx="45" cy="9" r="1" fill="white" style="fill:white;fill-opacity:1;"/>
<circle opacity="0.75" cx="42" cy="5" r="1" fill="white" style="fill:white;fill-opacity:1;"/>
<circle opacity="0.5" cx="11" cy="14" r="1" fill="white" style="fill:white;fill-opacity:1;"/>
<circle opacity="0.5" cx="8.5" cy="9.5" r="0.5" fill="white" style="fill:white;fill-opacity:1;"/>
<circle cx="51.5" cy="18.5" r="1.5" fill="white" style="fill:white;fill-opacity:1;"/>
<circle cx="10.5" cy="0.5" r="1.5" fill="white" style="fill:white;fill-opacity:1;"/>
<circle opacity="0.5" cx="37" cy="1" r="1" fill="white" style="fill:white;fill-opacity:1;"/>
<circle cx="53.5" cy="12.5" r="0.5" fill="white" style="fill:white;fill-opacity:1;"/>
<circle opacity="0.5" cx="14.5" cy="17.5" r="1.5" fill="white" style="fill:white;fill-opacity:1;"/>
<circle opacity="0.5" cx="5.5" cy="21.5" r="1.5" fill="white" style="fill:white;fill-opacity:1;"/>
<circle opacity="0.75" cx="16" cy="11" r="1" fill="white" style="fill:white;fill-opacity:1;"/>
<circle opacity="0.75" cx="1" cy="5" r="1" fill="white" style="fill:white;fill-opacity:1;"/>
<circle opacity="0.5" cx="31" cy="15" r="1" fill="white" style="fill:white;fill-opacity:1;"/>
<circle cx="60.5" cy="15.5" r="1.5" fill="white" style="fill:white;fill-opacity:1;"/>
<circle opacity="0.75" cx="4.5" cy="13.5" r="0.5" fill="white" style="fill:white;fill-opacity:1;"/>
<circle opacity="0.5" cx="37.5" cy="3.5" r="0.5" fill="white" style="fill:white;fill-opacity:1;"/>
<circle cx="17.5" cy="8.5" r="1.5" fill="white" style="fill:white;fill-opacity:1;"/>
<circle cx="5.5" cy="14.5" r="1.5" fill="white" style="fill:white;fill-opacity:1;"/>
<circle opacity="0.5" cx="34" cy="14" r="1" fill="white" style="fill:white;fill-opacity:1;"/>
<circle opacity="0.75" cx="4.5" cy="13.5" r="1.5" fill="white" style="fill:white;fill-opacity:1;"/>
<circle cx="46.5" cy="10.5" r="0.5" fill="white" style="fill:white;fill-opacity:1;"/>
<circle opacity="0.5" cx="12" cy="11" r="1" fill="white" style="fill:white;fill-opacity:1;"/>
<circle cx="14" cy="3" r="1" fill="white" style="fill:white;fill-opacity:1;"/>
<circle cx="6" cy="11" r="1" fill="white" style="fill:white;fill-opacity:1;"/>
<circle opacity="0.5" cx="49.5" cy="15.5" r="0.5" fill="white" style="fill:white;fill-opacity:1;"/>
<circle cx="11" cy="15" r="1" fill="white" style="fill:white;fill-opacity:1;"/>
<circle opacity="0.5" cx="17.5" cy="17.5" r="0.5" fill="white" style="fill:white;fill-opacity:1;"/>
<circle opacity="0.5" cx="7.5" cy="7.5" r="0.5" fill="white" style="fill:white;fill-opacity:1;"/>
<circle cx="39.5" cy="8.5" r="1.5" fill="white" style="fill:white;fill-opacity:1;"/>
<circle cx="15" cy="19" r="1" fill="white" style="fill:white;fill-opacity:1;"/>
<circle opacity="0.75" cx="11" cy="24" r="1" fill="white" style="fill:white;fill-opacity:1;"/>
<circle opacity="0.5" cx="43.5" cy="8.5" r="0.5" fill="white" style="fill:white;fill-opacity:1;"/>
<circle opacity="0.5" cx="26.5" cy="13.5" r="0.5" fill="white" style="fill:white;fill-opacity:1;"/>
<circle opacity="0.75" cx="59.5" cy="16.5" r="0.5" fill="white" style="fill:white;fill-opacity:1;"/>
<circle opacity="0.75" cx="48.5" cy="14.5" r="0.5" fill="white" style="fill:white;fill-opacity:1;"/>
<circle opacity="0.75" cx="40" cy="19" r="1" fill="white" style="fill:white;fill-opacity:1;"/>
<circle opacity="0.75" cx="31.5" cy="21.5" r="0.5" fill="white" style="fill:white;fill-opacity:1;"/>
<circle opacity="0.5" cx="35.5" cy="20.5" r="0.5" fill="white" style="fill:white;fill-opacity:1;"/>
<circle opacity="0.5" cx="48" cy="8" r="1" fill="white" style="fill:white;fill-opacity:1;"/>
<circle opacity="0.5" cx="26" cy="21" r="1" fill="white" style="fill:white;fill-opacity:1;"/>
<circle cx="1.5" cy="6.5" r="0.5" fill="white" style="fill:white;fill-opacity:1;"/>
<circle opacity="0.5" cx="21.5" cy="17.5" r="0.5" fill="white" style="fill:white;fill-opacity:1;"/>
<circle cx="13" cy="14" r="1" fill="white" style="fill:white;fill-opacity:1;"/>
<circle opacity="0.75" cx="19" cy="13" r="1" fill="white" style="fill:white;fill-opacity:1;"/>
<circle opacity="0.75" cx="13.5" cy="21.5" r="0.5" fill="white" style="fill:white;fill-opacity:1;"/>
<circle cx="24" cy="15" r="1" fill="white" style="fill:white;fill-opacity:1;"/>
<circle opacity="0.75" cx="42" cy="12" r="1" fill="white" style="fill:white;fill-opacity:1;"/>
<circle opacity="0.5" cx="4.5" cy="24.5" r="1.5" fill="white" style="fill:white;fill-opacity:1;"/>
<circle cx="41" cy="22" r="1" fill="white" style="fill:white;fill-opacity:1;"/>
<circle opacity="0.5" cx="56.5" cy="12.5" r="0.5" fill="white" style="fill:white;fill-opacity:1;"/>
<circle opacity="0.75" cx="18.5" cy="9.5" r="1.5" fill="white" style="fill:white;fill-opacity:1;"/>
<circle opacity="0.75" cx="19.5" cy="14.5" r="1.5" fill="white" style="fill:white;fill-opacity:1;"/>
<circle opacity="0.5" cx="39" cy="6" r="1" fill="white" style="fill:white;fill-opacity:1;"/>
<circle opacity="0.5" cx="34.5" cy="18.5" r="0.5" fill="white" style="fill:white;fill-opacity:1;"/>
<circle opacity="0.75" cx="53.5" cy="6.5" r="1.5" fill="white" style="fill:white;fill-opacity:1;"/>
<circle opacity="0.75" cx="23.5" cy="-0.5" r="1.5" fill="white" style="fill:white;fill-opacity:1;"/>
<circle opacity="0.75" cx="25.5" cy="22.5" r="0.5" fill="white" style="fill:white;fill-opacity:1;"/>
<circle opacity="0.5" cx="7.5" cy="13.5" r="1.5" fill="white" style="fill:white;fill-opacity:1;"/>
<circle cx="42" cy="11" r="1" fill="white" style="fill:white;fill-opacity:1;"/>
<circle opacity="0.5" cx="43.5" cy="0.5" r="0.5" fill="white" style="fill:white;fill-opacity:1;"/>
<circle opacity="0.75" cx="58.5" cy="2.5" r="0.5" fill="white" style="fill:white;fill-opacity:1;"/>
<circle opacity="0.5" cx="22.5" cy="10.5" r="0.5" fill="white" style="fill:white;fill-opacity:1;"/>
<circle opacity="0.5" cx="48" cy="18" r="1" fill="white" style="fill:white;fill-opacity:1;"/>
<circle cx="43.5" cy="12.5" r="0.5" fill="white" style="fill:white;fill-opacity:1;"/>
<circle opacity="0.5" cx="16.5" cy="7.5" r="1.5" fill="white" style="fill:white;fill-opacity:1;"/>
<circle opacity="0.75" cx="22" cy="17" r="1" fill="white" style="fill:white;fill-opacity:1;"/>
<circle opacity="0.5" cx="18" cy="6" r="1" fill="white" style="fill:white;fill-opacity:1;"/>
<circle cx="56.5" cy="16.5" r="0.5" fill="white" style="fill:white;fill-opacity:1;"/>
<circle opacity="0.75" cx="2" cy="2" r="1" fill="white" style="fill:white;fill-opacity:1;"/>
<circle opacity="0.5" cx="59" cy="2" r="1" fill="white" style="fill:white;fill-opacity:1;"/>
<circle opacity="0.5" cx="13.5" cy="17.5" r="1.5" fill="white" style="fill:white;fill-opacity:1;"/>
<circle opacity="0.75" cx="15.5" cy="4.5" r="1.5" fill="white" style="fill:white;fill-opacity:1;"/>
<circle opacity="0.75" cx="25.5" cy="18.5" r="0.5" fill="white" style="fill:white;fill-opacity:1;"/>
<circle cx="38.5" cy="16.5" r="0.5" fill="white" style="fill:white;fill-opacity:1;"/>
<circle opacity="0.75" cx="45" cy="11" r="1" fill="white" style="fill:white;fill-opacity:1;"/>
<circle cx="39.5" cy="4.5" r="0.5" fill="white" style="fill:white;fill-opacity:1;"/>
<circle opacity="0.75" cx="44.5" cy="16.5" r="0.5" fill="white" style="fill:white;fill-opacity:1;"/>
<circle cx="52.5" cy="8.5" r="1.5" fill="white" style="fill:white;fill-opacity:1;"/>
<circle cx="27" cy="14" r="1" fill="white" style="fill:white;fill-opacity:1;"/>
<circle opacity="0.5" cx="24.5" cy="22.5" r="0.5" fill="white" style="fill:white;fill-opacity:1;"/>
<circle cx="55.5" cy="5.5" r="1.5" fill="white" style="fill:white;fill-opacity:1;"/>
<circle opacity="0.5" cx="13.5" cy="5.5" r="1.5" fill="white" style="fill:white;fill-opacity:1;"/>
<circle opacity="0.75" cx="51.5" cy="2.5" r="0.5" fill="white" style="fill:white;fill-opacity:1;"/>
<circle cx="39" cy="2" r="1" fill="white" style="fill:white;fill-opacity:1;"/>
<circle opacity="0.75" cx="11" cy="3" r="1" fill="white" style="fill:white;fill-opacity:1;"/>
<circle cx="15.5" cy="22.5" r="1.5" fill="white" style="fill:white;fill-opacity:1;"/>
<circle opacity="0.5" cx="16.5" cy="8.5" r="1.5" fill="white" style="fill:white;fill-opacity:1;"/>
<circle opacity="0.5" cx="30.5" cy="16.5" r="0.5" fill="white" style="fill:white;fill-opacity:1;"/>
<circle opacity="0.5" cx="49.5" cy="11.5" r="0.5" fill="white" style="fill:white;fill-opacity:1;"/>
<circle opacity="0.5" cx="51" cy="2" r="1" fill="white" style="fill:white;fill-opacity:1;"/>
<circle opacity="0.75" cx="47" cy="21" r="1" fill="white" style="fill:white;fill-opacity:1;"/>
<circle opacity="0.5" cx="36.5" cy="21.5" r="1.5" fill="white" style="fill:white;fill-opacity:1;"/>
<circle cx="48.5" cy="2.5" r="0.5" fill="white" style="fill:white;fill-opacity:1;"/>
<circle opacity="0.75" cx="4.5" cy="7.5" r="0.5" fill="white" style="fill:white;fill-opacity:1;"/>
<circle opacity="0.5" cx="5.5" cy="12.5" r="1.5" fill="white" style="fill:white;fill-opacity:1;"/>
<circle cx="7.5" cy="18.5" r="1.5" fill="white" style="fill:white;fill-opacity:1;"/>
<circle opacity="0.5" cx="48" cy="5" r="1" fill="white" style="fill:white;fill-opacity:1;"/>
<circle opacity="0.5" cx="6.5" cy="12.5" r="0.5" fill="white" style="fill:white;fill-opacity:1;"/>
<circle cx="28.5" cy="7.5" r="1.5" fill="white" style="fill:white;fill-opacity:1;"/>
<circle opacity="0.5" cx="1.5" cy="6.5" r="1.5" fill="white" style="fill:white;fill-opacity:1;"/>
<circle cx="17.5" cy="12.5" r="0.5" fill="white" style="fill:white;fill-opacity:1;"/>
<circle opacity="0.5" cx="3.5" cy="12.5" r="1.5" fill="white" style="fill:white;fill-opacity:1;"/>
<circle opacity="0.75" cx="1.5" cy="2.5" r="0.5" fill="white" style="fill:white;fill-opacity:1;"/>
<circle cx="29.5" cy="20.5" r="0.5" fill="white" style="fill:white;fill-opacity:1;"/>
<circle opacity="0.5" cx="55.5" cy="18.5" r="1.5" fill="white" style="fill:white;fill-opacity:1;"/>
<circle cx="25.5" cy="2.5" r="0.5" fill="white" style="fill:white;fill-opacity:1;"/>
<circle cx="21" cy="6" r="1" fill="white" style="fill:white;fill-opacity:1;"/>
<circle opacity="0.5" cx="29.5" cy="13.5" r="1.5" fill="white" style="fill:white;fill-opacity:1;"/>
<circle cx="55.5" cy="5.5" r="1.5" fill="white" style="fill:white;fill-opacity:1;"/>
<circle opacity="0.5" cx="14" cy="10" r="1" fill="white" style="fill:white;fill-opacity:1;"/>
<circle opacity="0.5" cx="13.5" cy="16.5" r="1.5" fill="white" style="fill:white;fill-opacity:1;"/>
<circle opacity="0.5" cx="25" cy="17" r="1" fill="white" style="fill:white;fill-opacity:1;"/>
<circle cx="49.5" cy="12.5" r="1.5" fill="white" style="fill:white;fill-opacity:1;"/>
<circle opacity="0.5" cx="48.5" cy="16.5" r="1.5" fill="white" style="fill:white;fill-opacity:1;"/>
<circle opacity="0.75" cx="11" cy="9" r="1" fill="white" style="fill:white;fill-opacity:1;"/>
</g>
</g>
<defs>
<filter id="filter0_i_232_6397" x="0" y="0" width="61" height="24" filterUnits="userSpaceOnUse" color-interpolation-filters="sRGB">
<feFlood flood-opacity="0" result="BackgroundImageFix"/>
<feBlend mode="normal" in="SourceGraphic" in2="BackgroundImageFix" result="shape"/>
<feColorMatrix in="SourceAlpha" type="matrix" values="0 0 0 0 0 0 0 0 0 0 0 0 0 0 0 0 0 0 127 0" result="hardAlpha"/>
<feOffset/>
<feGaussianBlur stdDeviation="1"/>
<feComposite in2="hardAlpha" operator="arithmetic" k2="-1" k3="1"/>
<feColorMatrix type="matrix" values="0 0 0 0 0.156863 0 0 0 0 0.415686 0 0 0 0 0.686275 0 0 0 1 0"/>
<feBlend mode="normal" in2="shape" result="effect1_innerShadow_232_6397"/>
</filter>
<clipPath id="clip0_232_6397">
<rect width="61" height="24" rx="8" fill="white" style="fill:white;fill-opacity:1;"/>
</clipPath>
</defs>
</svg>
